<?xml version="1.0" encoding="utf-8"?>
<!-- Generator: Adobe Illustrator 26.3.1, SVG Export Plug-In . SVG Version: 6.00 Build 0)  -->
<svg version="1.1" id="Layer_1" xmlns="http://www.w3.org/2000/svg" xmlns:xlink="http://www.w3.org/1999/xlink" x="0px" y="0px"
	 viewBox="0 0 960 560" style="enable-background:new 0 0 960 560;" xml:space="preserve">
<path d="M951.36,556.67c1.34,0.3,2.57,0.53,3.78,0.85c2.74,0.72,4.47,3.03,4.13,5.45c-0.54,3.83-2.04,5.3-5.42,5.26
	c-0.91-0.01-1.82-0.14-2.74-0.2c-19.16-1.08-38.33-1.08-57.51-0.65c-7.31,0.16-14.62,0.01-21.92,0.23c-9.8,0.3-19.6,1.01-29.4,1.24
	c-19.43,0.46-38.87,0.72-58.3,1.06c-16.44,0.29-32.89,0.58-49.33,0.9c-4.22,0.08-8.44,0.37-12.66,0.42
	c-16.45,0.2-32.9,0.32-49.35,0.51c-9.01,0.11-18.01,0.36-27.02,0.42c-4.45,0.03-8.91-0.37-13.36-0.26
	c-5.7,0.14-11.38,0.71-17.08,0.86c-5.01,0.12-10.03-0.19-15.05-0.13c-7.87,0.09-15.75,0.5-23.62,0.43
	c-4.89-0.04-9.78-0.92-14.68-1.06c-5.58-0.16-11.18,0.11-16.77,0.15c-5.92,0.04-11.83-0.08-17.75,0.08
	c-5.13,0.14-10.25,0.61-15.38,0.86c-2.62,0.13-5.24,0.02-7.86,0.12c-5.58,0.22-11.15,0.58-16.73,0.73
	c-6.36,0.18-12.74-0.02-19.1,0.32c-11.75,0.64-23.48,1.56-35.22,2.34c-3.96,0.26-7.93,0.47-11.9,0.72
	c-0.56,0.04-1.17,0.07-1.66,0.32c-3.44,1.77-7.18,1.1-10.77,1.45c-3.49,0.34-7.06-0.26-10.59-0.23c-4.9,0.04-9.79,0.48-14.68,0.4
	c-6.93-0.11-13.86-0.53-20.79-0.82c-0.23-0.01-0.46-0.05-0.68,0.01c-7.01,1.75-14.11,0.49-21.17,0.7
	c-11.19,0.34-22.37,0.67-33.56,1.07c-6.97,0.25-13.93,0.57-20.9,0.94c-7.64,0.4-15.28,1.07-22.93,1.27
	c-5.36,0.14-10.73-0.33-16.1-0.53c-10.96-0.41-21.93-0.78-32.89-1.24c-2.62-0.11-5.23-0.62-7.86-0.73
	c-8.68-0.34-17.36-0.62-26.04-0.86c-14.29-0.4-28.57-0.92-42.86-1.05c-9.14-0.09-18.29,0.42-27.44,0.67
	c-1.11,0.03-2.22-0.16-2.94,1.29c-0.69,1.4-1.96,1.45-2.77,0.19c-1.05-1.64-2.48-1.55-3.94-1.51c-8.79,0.22-17.58,0.52-26.37,0.67
	c-6.29,0.11-12.58-0.02-18.87,0.03c-3.08,0.02-6.15,0.22-9.23,0.32c-5.36,0.17-10.73,0.46-16.09,0.44
	c-5.93-0.02-11.87-0.57-17.79-0.41c-4,0.11-6.76-2.07-9.24-4.78c-1.06-1.15-0.81-3.39-2.27-4.63c-0.76-0.65-1.21-1.74-1.86-2.71
	c2.54-3.94,6.56-2.41,10.45-3.11c-0.44-2.55-0.77-4.94-1.28-7.28c-0.7-3.24-1.61-6.44-2.28-9.69c-0.83-4.03-2.24-7.62-4.68-10.94
	c-3.61-4.92-6.66-10.34-11.03-14.56c-2.29-2.2-4.85-4.08-7.33-6.04c-1.35-1.06-2.92-1.61-4.02-3.29c-0.65-0.99-2.61-0.98-4.08-1.45
	c-0.41-2.43-0.14-2.68,2.21-2.29c6.94,1.15,12.84,4.7,18.4,9.11c4.15,3.29,8.18,6.62,11.18,11.29c1.86,2.9,4.38,5.31,6.3,8.17
	c1.17,1.75,1.76,3.95,2.85,5.86c-2.23-7.42-3.39-15.03-4.16-22.73c-0.7-7.01-0.79-14.04-0.07-21.05c0.21-2.01,1.13-3.94,1.75-5.89
	c0.45-1.39,0.95-2.77,1.41-4.16c1.21-3.71,2.32-7.45,3.65-11.11c0.49-1.35,1.36-2.57,2.24-3.69c0.42-0.53,1.26-0.67,1.91-0.99
	c1.05,1.85,0.39,3.14-0.32,4.43c-4.4,7.9-6.31,16.32-4.79,25.54c1.04,6.31,1.57,12.74,3,18.94c1.56,6.75,3.69,13.38,7.24,19.51
	c0.28-4.34,0.62-8.67,0.83-13.01c0.42-8.47,3.46-15.98,7.25-23.21c0.89-1.71,2.08-2.25,2.86-1.32c0.97,1.17,0.85,2.25-0.25,3.51
	c-2.74,3.15-3.79,7.3-5.04,11.25c-2.64,8.29-2.45,16.5,1.12,24.51c0.84,1.88,1.58,3.8,2.67,6.43c0.72-2.17,0.91-3.76,1.11-5.36
	c0.28-2.32,0.55-4.65,0.94-6.95c0.33-1.95,2.16-2.98,4.26-2.54c1.45-2.6,0.81-6.1,3.01-8.42c1.08,0.09,2.08,0.64,1.71,1.72
	c-1.48,4.33-0.53,8.5,0.47,12.66c1.59,6.57,4.38,12.58,7.67,18.41c-2.32-5.96-1.37-12.19-1.6-18.31c-0.07-1.96-0.52-3.9-0.63-5.86
	c-0.45-8.11-0.89-16.22-1.21-24.34c-0.11-2.94-0.05-5.93,0.27-8.85c0.26-2.39-0.33-4.29-1.55-6.21
	c-4.33-6.84-8.38-13.88-10.48-21.95c-1.11-4.27-1.97-8.61-2.89-12.93c-0.15-0.69-0.01-1.45,0.03-2.17c0.1-1.69,0.32-3.38,0.29-5.07
	c-0.04-2.49,0.28-3.13,2.37-3.89c1.59,6.63,2.88,13.36,4.84,19.85c1.93,6.4,4.44,12.62,8.64,18.26c0.27-1.26,0.56-2.09,0.62-2.93
	c0.81-10.28,3.78-20,6.79-29.69c1.96-6.32,4.44-12.41,8.23-17.81c2.54-3.61,4.64-7.58,7.17-11.19c1.35-1.93,3.21-3.46,4.83-5.18
	c0.73-0.77,1.7-1.3,2.33-0.29c0.37,0.59,0.21,1.92-0.17,2.64c-0.89,1.7-1.97,3.32-3.12,4.83c-3.38,4.43-5.75,9.48-7.7,14.76
	c-2.59,6.97-5.16,13.96-7.46,21.05c-1.16,3.59-1.94,7.37-2.49,11.14c-0.98,6.69-1.65,13.44-2.46,20.17c-0.29,2.4,0.44,4.34,2.1,5.97
	c1.94,1.91,3.8,3.92,5.69,5.89c4.96,5.15,9.1,11,12.76,17.27c0.24,0.41,0.57,0.76,0.88,1.17c0.57-0.2,1.1-0.53,1.63-0.54
	c2.06-0.05,3.48,1.78,2.71,3.84c-1.06,2.79-0.41,4.95,1.65,7.31c0.68-1.73,1.42-3.22,1.87-4.81c1.95-6.78,4.92-13.03,8.52-18.9
	c3.86-6.3,6.21-13.01,6.27-20.68c0.02-2.73,0.88-5.44,1.34-8.1c0.58,0.05,0.75,0.01,0.79,0.08c0.59,0.88,1.95,6.14,1.84,7.04
	c-0.64,5-1.09,10.04-1.98,14.98c-1.09,6.05-3.01,11.85-5.53,17.41c-2.51,5.55-4.78,11.2-6.1,17.25c-1.07,4.86-0.17,9.54,1.13,14.14
	c0.73,2.58,2.04,4.97,2.86,7.53c0.57,1.77,1.47,1.99,2.69,1.45c1.07-4.01,2.19-7.87,3.08-11.78c0.37-1.61,0.47-3.39,0.28-5.03
	c-0.42-3.67-1.09-7.31-1.66-10.97c-0.15-0.97-0.41-1.96-0.36-2.93c0.34-6.27,0.36-12.65,2.85-18.49c1.22-2.85,3.19-5.31,4.55-8.1
	c0.97-1.99,2.51-3.33,3.84-4.91c0.33-0.39,1.17-0.29,1.78-0.41c0.05,0.66,0.34,1.44,0.12,1.97c-1.18,2.8-2.21,5.74-3.81,8.24
	c-2.4,3.76-3.14,8.17-4.39,12.32c-0.71,2.34-0.14,5.48,0.66,7.95c2.04,6.28,4.73,12.26,8.91,17.29c0.23,0.27,0.45,0.56,0.72,0.76
	c0.17,0.12,0.43,0.1,1.14,0.25c0.01-1.45,0.18-2.86,0.01-4.21c-0.99-8.36-1.2-16.75-0.28-25.11c0.63-5.74,1.52-11.46,2.64-17.11
	c0.5-2.54-0.1-4.56-0.97-6.74c-1.72-4.28-3.69-8.5-4.93-12.94c-1.87-6.71-3.44-13.54-4.7-20.42c-0.97-5.3-1.35-10.75-1.83-16.14
	c-0.18-2.07,0.05-4.18,0.14-6.27c0.07-1.56,0.64-2.84,1.9-3.74c2.01,0.81,2.06,2.55,1.85,4.28c-0.78,6.58-0.02,13.08,0.97,19.53
	c0.99,6.47,3.14,12.58,5.66,18.53c1.27,2.99,2.67,5.92,4.38,9.7c0.75-1.79,1.16-2.7,1.52-3.65c1.92-5.13,3.82-10.27,5.76-15.39
	c0.6-1.59,1.3-3.15,1.97-4.71c0.61-1.43,1.67-2.26,3.01-1.46c1.33,0.79,0.67,2.2,0.21,3.3c-0.57,1.34-1.52,2.52-1.92,3.9
	c-2.02,6.93-3.89,13.92-5.88,20.87c-0.74,2.58-0.19,4.79,1.04,7.04c4.32,7.84,8.65,15.66,12.79,23.61
	c4.02,7.72,7.8,15.59,11.69,23.39c0.42,0.85,0.88,1.67,1.59,3.04c1.14-4.39,2.13-8.23,3.13-12.06c0.22-0.83,0.37-1.7,0.74-2.45
	c1.6-3.3,0.69-6.5-0.4-9.59c-1.37-3.9-2.96-7.71-4.58-11.51c-0.71-1.66-1.71-3.18-2.58-4.77c-0.35-0.63-0.84-1.21-1.04-1.89
	c-0.15-0.51-0.1-1.47,0.18-1.66c0.48-0.33,1.41-0.51,1.82-0.22c0.94,0.66,1.82,1.54,2.49,2.52c2.92,4.25,5.75,8.57,8.62,12.86
	c0.12,0.18,0.37,0.27,0.77,0.56c1.82-2.62,3.4-5.4,4.1-8.6c0.24-1.07-0.14-2.44-0.56-3.52c-5.82-15.02-11.66-30.02-17.58-45
	c-2.06-5.2-4.42-10.26-6.48-15.46c-1.7-4.29-3.22-8.68-4.73-13.06c-0.9-2.61-0.95-5.29-0.12-7.97c1.08-3.49,2.02-7.04,3.24-10.47
	c0.52-1.46,1.48-2.79,2.44-3.99c3.62-4.54,6.28-9.71,7.74-15.43c0.49-1.94,0.12-4.6-0.78-6.38c-1.39-2.74-2.06-6.25-5.3-7.61
	c-1.04-0.44-1.93-1.29-2.89-1.96c-0.95-0.67-1.89-1.35-3.09-2.21c-0.42,0.67-0.98,1.26-1.24,1.98c-2.81,7.82-5.6,15.64-8.33,23.49
	c-1.29,3.69-2.45,7.44-3.65,11.17c-0.11,0.34-0.14,0.71-0.18,1.07c-0.52,5.06-3.84,6.94-7.96,4.51c-3.66-2.16-4.94-5.39-4.21-9.84
	c0.71-4.28,1.67-8.38,3.68-12.23c0.9-1.72,0.87-4.01,1.28-6.04c0.41-2.03,0.67-4.11,1.32-6.05c1.4-4.23,3.01-8.38,4.6-12.77
	c-3.74,0.01-7,0.04-10.27,0.01c-1.29-0.02-2.54-0.35-3.11-1.82c-0.55-1.41,0.3-2.21,1.13-3.17c4.92-5.67,9.81-11.37,14.63-17.15
	c5.03-6.03,9.86-12.26,14.96-18.22c2.71-3.16,5.8-5.93,8.74-8.84c1.39-1.38,2.76-2.81,4.29-4.01c4.91-3.85,10.8-5.02,16.45-6.83
	c5.14-1.65,10.33-3.11,15.44-4.86c0.93-0.32,1.76-1.48,2.33-2.46c2.24-3.9,5.25-6.75,9.22-8.4c0.64-0.26,1.35-0.4,1.92-0.78
	c5.52-3.78,10.39-1.7,15.18,1.82c2.97,2.18,5.97,4.4,9.17,6.13c1.87,1.01,4.29,0.78,6.23,1.7c3.59,1.69,7.08,3.68,10.46,5.82
	c1.75,1.11,2.28,3.25,2.3,5.43c-2.9,0.2-2.41-0.05-5.26-0.62c-2.13-0.72-4.09-1.06-6.67-1.49c-1.55,0.11-2.94-0.13-4.43-0.13
	c-5.68-0.01-10.32,1.96-13.96,7.04c-2.14,2.99-3.63,6.16-5.09,9.52c-3.28,7.59-6.7,15.13-10.5,22.43
	c-2.44,4.71-6.7,7.73-10.82,10.64c-3.42,2.43-6.83,4.97-10.88,6.15c-0.74,0.22-1.46,0.71-2.08,1.24c-2.92,2.5-5.8,5.05-9.15,7.99
	c0.53,4.4,2.42,8.93,5.04,13.45c4.82-1.84,9.62-3.7,14.43-5.51c9.38-3.51,18.77-6.91,28.43-9.51c6.39-1.71,12.84-1.81,19.29-2.2
	c1.54-0.09,3.26,0.19,4.66,0.87c3.63,1.74,7.17,3.72,10.68,5.74c3.47,1.99,5.55,5.48,7.4,8.99c5.64,10.74,10.79,21.75,15.12,33.18
	c1.6,4.22,2.97,8.56,4.66,12.74c2.28,5.64,4.74,11.2,7.18,16.76c5.88,13.38,11.74,26.76,17.71,40.09
	c3.88,8.66,7.92,17.22,11.89,25.84c1.88,4.08,3.73,8.18,5.61,12.26c0.24,0.53,0.63,0.97,1.34,2.03c0.83-2.63,1.61-4.73,2.16-6.9
	c2.26-8.85,3.48-17.87,3.6-27.05c0.05-4.07-0.2-8.14-0.29-12.22c-0.02-1.11-0.01-2.23,0.12-3.33c0.2-1.66,1.04-2.09,2.3-1.16
	c1.79,1.31,2.68,2.85,2.53,5.52c-0.4,7.01-0.35,14.06-0.47,21.09c-0.08,4.93,0.08,9.88-0.27,14.79c-0.26,3.54-1.21,7.02-1.82,10.54
	c-0.19,1.13-0.25,2.29-0.06,3.51c2.01-3.21,4.87-5.75,4.56-10.28c-0.13-1.91-0.39-4.49,1.7-6.33c0.83,0.65,1.61,1.26,2.54,1.99
	c0.93-1.5,1.87-3.02,2.9-4.68c-1.7-3.09-3.37-6.13-5.03-9.18c-0.57-1.05-1.44-2.25-0.03-3.18c1.11-0.74,2.15-0.36,2.89,0.94
	c1.24,2.18,2.56,4.3,4.14,6.95c0.95-1.65,2-2.93,2.49-4.42c2.1-6.35,4.65-12.57,5.39-19.38c0.37-3.41,0.74-6.82,1.2-10.22
	c0.16-1.19,0.6-2.34,0.87-3.52c0.47-2.11,0.9-4.22,1.51-7.06c0.1-0.02,1.18-0.61,1.63-0.26c0.54,0.43,0.75,1.64,0.77,2.52
	c0.19,7.05-2.21,13.67-3.04,20.57c-0.93,7.77-3.89,14.97-6.64,22.13c-1.26,3.28-0.95,5.87,0.56,8.69c1.48,2.77,2.89,5.58,4.46,8.63
	c2.31-1.83,2.53-4.87,3.86-7.16c1.01-1.74,1.97-3.55,2.72-5.44c0.62-1.56,0.94-3.26,1.3-4.93c0.41-1.92,0.61-3.9,1.15-5.77
	c0.16-0.53,1.18-0.77,1.81-1.15c0.23,0.63,0.72,1.29,0.64,1.87c-0.52,4.27-1.17,8.51-1.76,12.77c-0.46,3.32-1.88,6.21-3.39,9.07
	c-0.62,1.17-1.35,2.29-1.89,3.51c-1.46,3.35-1.8,6.62-0.42,10.3c1.83,4.88,3.07,10.02,4.48,14.77c1.81,0.59,2.95,0.45,3.66-1.05
	c0.84-1.76,3.12-2.91,2.08-5.46c-0.67-1.64-0.28-2.99,0.4-4.55c0.87-1.98,1.57-4.13,1.91-6.28c2.1-13.16,1.73-26.29-0.7-39.38
	c-0.65-3.5-1.01-7.07-1.55-10.6c-0.23-1.48,0.2-2.52,1.61-2.66c1.28-0.13,1.7,0.95,1.93,2.13c1.11,5.67,2.25,11.33,3.38,17
	c0.02,0.12,0,0.25,0.04,0.37c2.8,7.96,2.2,16.44,3.56,24.72c1.26-7.39,2.83-14.74,3.63-22.18c0.29-2.72-1-5.76-1.95-8.5
	c-2.97-8.61-5.36-17.32-5.45-26.62c-0.03-3.57-0.45-7.14-0.48-10.71c-0.03-2.88,0.47-3.32,3.43-3.67
	c-0.3,12.63,1.73,24.74,7.22,36.88c1.5-7.35,2.85-14,4.21-20.64c0.91-4.45,2.01-8.87,2.73-13.36c0.52-3.25,0.62-6.59,0.82-9.9
	c0.08-1.34-0.49-2.31-1.8-2.78c-3.33-1.18-6.57-2.79-9.97-3.62c-5.18-1.27-10.19-7.02-11.08-12.64c-0.71-4.53-0.26-8.85,0.83-13.16
	c1.55-6.15,6.79-10,13.19-7.19c1.87,0.82,3.92,1.16,5.9,1.71c2.74,0.76,5.48,1.51,8.47,2.32c0.99-3.12,1.5-6.2,1.79-9.36
	c0.33-3.55,1-7.06,1.29-10.62c0.23-2.75,2-4.35,3.46-6.15c2.47-3.05,5.49-3.46,9.17-2.53c4.75,1.2,9.67,1.57,14.5,2.44
	c1.79,0.32,3.54,0.95,5.25,1.61c0.69,0.27,1.41,0.85,1.83,1.51c2.74,4.32,4.26,9.01,3.21,14.32c-0.67,3.37-1.5,6.71-2.19,10.08
	c-0.31,1.52-0.45,3.09-0.74,5.09c2.71,0.59,5.14,1.04,7.53,1.67c2.87,0.75,5.74,1.55,8.55,2.52c0.79,0.27,1.49,1.14,2.03,1.9
	c1.68,2.37,2.34,5.12,1.92,8.04c-0.84,5.84-1.7,11.69-2.76,17.49c-0.72,3.97-4.68,7.13-8.43,7.19c-4.33,0.06-8.66,0.24-12.99,0.22
	c-1.42-0.01-2.15,0.6-2.47,1.97c-0.35,1.55-0.7,3.12-0.95,4.69c-1.04,6.43-2.04,12.86-3.05,19.3c5.04,3.18,10.02,6.32,15.19,9.59
	c0.04-0.05,0.38-0.38,0.57-0.79c4.78-10.82,11.57-20.06,19.07-28.78c5.12-5.95,10.76-10.99,17.98-13.73
	c1.69-0.64,3.18-1.92,4.76-2.9c2.59-1.61,2.79-1.53,4.29,1.65c-0.19,0.25-0.35,0.66-0.62,0.77c-5.52,2.31-9.85,6.25-13.65,11.09
	c-2.43,3.1-5.22,5.87-7.92,8.71c-7.29,7.67-11.82,17.11-15.14,27.33c-0.11,0.35-0.22,0.7-0.33,1.05c-1.16,3.74-0.77,6.87,1.71,10.19
	c3.53,4.7,5.8,10.17,6.95,16.3c0.97,5.19,2.2,10.31,2.77,15.59c0.19,1.77,0.93,3.47,1.49,5.45c4.19-8.23,3.52-16.46,2.27-24.83
	c-0.89-5.96-1.88-11.86-3.74-17.58c-0.33-1.02-0.15-2.24,0.2-3.53c2.95,2.08,4.16,5.57,5.92,8.37c1.76,2.79,2.05,6.66,3.57,10.08
	c0.22-0.72,0.53-1.42,0.65-2.16c0.93-5.71,1.96-11.39,0.53-17.22c-0.46-1.88-0.43-3.91-0.58-5.88c-0.21-2.57-0.31-5.16-0.58-7.73
	c-0.43-4,0.51-7.75,1.42-11.52c2.07,0.28,2.81,1.06,3.15,3.42c0.32,2.2,0.45,4.42,0.81,6.61c1.15,7.04,2.52,14.04,3.52,21.1
	c0.7,4.96,0.95,10,1.41,15.14c0.98-3.04,2-6.12,2.96-9.22c2.25-7.24,4.48-14.5,6.72-21.75c0.32-1.05,0.69-2.09,0.97-3.16
	c0.79-3.05,0.78-3.05,4.4-2.35c-0.6,1.59-1.14,3.13-1.76,4.63c-4.54,10.88-7.33,22.25-8.57,34.13c-0.7,6.64-2.02,13.15-4.96,19.17
	c-1,2.04-1.55,4.34-2.31,6.52c1.64,1.03,2.18,0.2,2.62-1.2c0.99-3.13,2.06-6.24,3.14-9.34c0.71-2.05,1.22-4.27,2.32-6.06
	c1.23-1.99,1.11-3.86,0.76-5.95c-0.42-2.5-1.02-4.93,0.37-7.48c0.7-1.27,0.55-3.12,0.65-4.72c0.09-1.4,0.74-2.08,1.96-1.97
	c1.23,0.12,1.79,1.01,1.65,2.33c-0.25,2.43-0.53,4.86-0.86,7.82c3.67-1.89,4.02-7.04,7.91-7.85c0.97,1.71,0.83,2.9-0.24,4.25
	c-1.48,1.86-2.73,3.94-4.03,5.96c-2.17,3.39-3.29,7.01-2.01,11.15c0.56,1.82,1,3.68,1.68,6.24c1.22-4.66,2.17-8.49,3.27-12.27
	c0.25-0.88,0.84-1.82,1.54-2.32c1.21-0.87,1.65-2.02,1.62-3.43c-0.19-8.27,1.72-16.13,3.88-23.95c0.13-0.47,0.07-1.06,0.31-1.43
	c2.74-4.29,1.66-8.74,0.66-13.28c-2.54-11.58-0.99-22.93,1.91-34.17c0.18-0.71,0.86-1.28,1.55-2.27c0.64,1.95,1.09,3.35,0.45,4.98
	c-0.81,2.05-1.44,4.1,0.08,6.23c0.34,0.48-0.06,1.62-0.19,2.44c-0.54,3.38-1.23,6.75-1.64,10.15c-0.52,4.26,0.85,8.18,2.28,12.66
	c2.1-3.35,3.79-6.41,5.8-9.19c3.73-5.13,7.65-10.1,11.49-15.14c0.85-1.12,1.86-1.3,3.14-0.56c0.33,2.15-0.76,3.64-2.06,5.07
	c-4.45,4.92-7.8,10.65-10.1,17.04c-1.4,3.89-2.56,7.9-3.56,11.94c-0.29,1.15,0.06,2.77,0.64,3.84c1.78,3.25,3.81,6.34,5.75,9.5
	c0.25-0.07,0.5-0.14,0.75-0.21c0.02-3.24,0.32-6.52-0.01-9.72c-0.33-3.27,1.2-5.84,1.66-9.4c0.95,0.93,1.74,1.32,1.81,1.83
	c0.29,2.16,0.5,4.35,0.48,6.52c-0.03,4.68-0.28,9.36-0.32,14.04c-0.01,1.11,0.43,2.22,0.66,3.33c0.27-0.01,0.55-0.02,0.82-0.02
	c0.12-1.01,0.33-2.01,0.36-3.02c0.22-9.7,1.73-19.14,4.79-28.28c0.53-1.59,0.61-3.36,0.92-5.05c0.45-2.41,1.4-3.08,4.09-2.56
	c-0.28,1.17-0.52,2.32-0.82,3.46c-1.82,6.86-4.45,13.52-4.88,20.75c-0.18,3.05-0.07,6.14,0.22,9.19c0.22,2.31,0.92,4.56,1.42,6.84
	c0.1,0.48,0.17,0.99,0.37,1.42c2.73,5.97,6.06,11.49,10.64,16.6c1.74-1.98,3.4-3.78,4.98-5.66c4.53-5.39,7.31-11.89,9.71-18.57
	c2.4-6.65,5.27-13.14,6.35-20.27c0.5-3.29,1.11-6.57,1.4-9.88c0.09-1.03-0.47-2.39-1.15-3.19c-3.23-3.81-6.6-7.49-9.94-11.2
	c-0.64-0.71-1.26-1.46-1.98-2.04c-3.12-2.5-5.09-5.88-6.74-10.27c1.27,0.38,2.2,0.57,3.07,0.94c3.32,1.43,5.88,4.05,8.65,6.38
	c2.86,2.41,5.92,4.52,9.23,7.02c0.33-1.17,0.68-1.82,0.67-2.46c-0.1-6.17-0.21-12.33-0.46-18.49c-0.06-1.44-0.76-2.84-0.97-4.29
	c-0.13-0.86,0.13-1.78,0.22-2.67c0.73,0.16,1.48,0.26,2.18,0.51c0.41,0.15,0.74,0.56,1.29,0.99c0.42,5.03,1.03,10.18,1.22,15.35
	c0.12,3.31-0.29,6.65-0.61,9.96c-0.25,2.6,0.79,4.35,2.52,6.04c3.7,3.62,7.22,7.44,10.91,11.28c0.74-0.99,1.61-2.43,2.75-3.55
	c0.52-0.51,1.79-0.77,2.35-0.43c1.07,0.65,0.49,1.74-0.17,2.49c-2.92,3.36-2.25,6.09-0.04,10c4.42,7.83,6.7,16.67,7.43,25.92
	c0.73,9.21-0.45,18.23-1.93,27.24c-0.28,1.67-0.88,3.27-1.48,5.4c1.4-0.07,2.58-0.13,4.08-0.21c0.41-2.24,0.53-4.49,1.23-6.5
	c1.9-5.39,4.03-10.69,6.12-16.01c0.73-1.87,2.13-1.97,3.97-1.33c0,1.62,0.01,3.26,0.01,5.1c2.07,0.23,2.74,1.95,3.44,3.88
	c1.54,4.24,3.33,8.38,4.94,12.6c0.79,2.07,1.96,2.92,4.04,1.96c-0.22-1.4-0.43-2.81-0.63-4.09c-0.98-0.21-1.87-0.4-3.18-0.68
	c0.74-1.53,1.25-2.57,1.93-3.97c-1.17-2.77-2.38-5.82-3.74-8.78c-3.56-7.78-6.29-15.92-8.11-24.33
	c-2.37-10.92-4.27-21.97-3.88-33.29c0.05-1.34,0.25-2.72,0.68-3.96c0.22-0.62,1.12-0.96,1.71-1.43c0.32,0.59,0.72,1.15,0.93,1.79
	c0.14,0.44-0.01,0.98,0,1.47c0.14,8.43,0.88,16.7,4.02,24.6c1.29,3.25,1.83,6.84,2.74,10.27c0.28,1.06,0.61,2.13,1.06,3.12
	c2.51,5.54,5.04,11.05,7.6,16.56c0.29,0.64,0.74,1.19,1.4,2.22c0.41-1.27,0.78-2.11,0.94-2.99c1.5-8.17,1.32-16.39,0.93-24.68
	c-0.38-8.13-0.35-16.3-0.06-24.44c0.18-5.05,1.33-10.01,3.73-14.52c0.97-1.81,1.72-3.77,2.49-5.69c0.82-2.01,1.82-1.87,3.23-0.35
	c-0.41,0.85-0.85,1.67-1.2,2.53c-3.88,9.49-5.41,19.34-3.43,29.59c1.35,6.99,3.37,13.84,4.48,20.87c0.98,6.22,3.3,11.71,6.41,17.85
	c-0.15-3.41-0.23-6.06-0.39-8.7c-0.25-4.19-0.88-8.39-0.76-12.56c0.12-4.16,0.97-8.3,1.47-12.45c0.56-4.64,1.1-9.28,1.69-14.34
	c0.84-0.75,2.05-1.48,3.9-0.51c-1.1,10.9-3.16,21.83-0.48,32.68c1.78,7.22,4.15,14.28,6.25,21.4c0.29,0.02,0.59,0.04,0.88,0.05
	c0.75-2.12,1.52-4.24,2.25-6.37c0.4-1.16,0.63-2.39,1.12-3.49c0.26-0.58,0.97-1.37,1.4-1.32c0.68,0.08,1.58,0.64,1.86,1.27
	c0.37,0.8,0.41,1.92,0.25,2.83c-0.32,1.81-0.86,3.58-1.32,5.36c-1.53,5.85-1.37,11.69,0.16,17.64c2.22,0,4.44-0.01,6.79-0.01
	c-0.47-4.1-0.92-7.86-1.31-11.63c-0.8-7.7-0.1-15.29,1.76-22.74c0.89-3.57,1.98-7.08,3.12-10.56c0.5-1.52,0.02-2.66-0.7-3.8
	c-2.9-4.58-5.87-9.12-8.74-13.73c-0.82-1.31-1.46-2.78-2-4.26c-0.39-1.07-0.38-2.22,1.28-2.68c4.03,5.91,8.1,11.9,12.6,18.51
	c2.1-4.45,3.93-8.32,5.81-12.31c1.29,0.01,2.32,0.21,1.67,2.09c-1.11,3.22-2.03,6.54-3.43,9.61c-1.07,2.34-1.04,4.16,0.63,5.97
	c1.77,1.91,3.56,3.78,5.31,5.71c1.19,1.32,2.47,2.59,3.45,4.09c3.02,4.63,5.76,9.43,7.27,14.95c0.5,1.82,1.49,3.48,2.25,5.23
	c0.9-6.04-0.41-11.66-2.68-17.1c-2.16-5.16-4.61-10.21-6.36-15.52c-1.63-4.97-2.55-10.22-3.7-15.36c-0.28-1.26-0.23-2.61-0.38-4.46
	c1.05,0.43,1.89,0.49,2.08,0.89c0.64,1.42,1.39,2.94,1.48,4.46c0.38,6.42,3.75,11.28,6.97,16.2c3.28,5.01,7.05,9.7,9.98,14.93
	c3.82,6.83,7.61,13.77,9.28,21.71c0.17,0.8,0.52,1.56,0.98,2.89c1.06-5.96,1.8-11.39,3.04-16.68c1.76-7.53,3.91-14.95,7.91-21.56
	c1.65-2.72,2.01-5.49,0.83-8.72c-2.2-6.01-3.15-12.36-3.1-18.84c0.01-1.59,0.2-3.2,0.51-4.76c0.1-0.53,0.8-0.92,1.82-2.01
	c0.26,2.12,0.68,3.52,0.55,4.85c-0.66,6.62,1.13,12.7,3.3,18.72c0.13,0.35,0.28,0.7,0.42,1.06c3.65-2.84,4.81-8,9.34-9.19
	c1.28,2.94,0.6,4.72-1.35,6.69c-2.04,2.06-3.49,4.82-5.17,7.24c2.22,4.88,4.3,9.38,8.42,12.52c0.99-1.21,0.43-2.57,0.43-3.83
	c-0.01-2.45-0.07-4.9-0.05-7.36c0.06-6.41,0.18-12.83,0.24-19.24c0.08-7.79,1.47-15.24,5.53-21.8c3.34-5.39,7.98-8.45,14.25-8.38
	c3.64,0.04,7.29-0.62,10.93-0.69c6.72-0.13,13.44-0.1,20.15-0.01c1.22,0.02,2.46,0.54,3.64,0.97c1.7,0.62,3.46,1.19,5.01,2.12
	c1.15,0.69,2.36,1.74,2.93,2.96c1.12,2.39,2,4.97,2.65,7.56c1.96,7.83,1.4,15.95,2.18,23.93c0.21,2.21,0.35,4.43,0.71,6.61
	c0.19,1.13,0.81,2.18,1.39,3.67c2.45-2.35,4.59-4.31,6.63-6.41c1.98-2.03,3.52-4.72,6.58-5.22c1.06,1.91-0.05,2.71-0.87,3.73
	c-2.92,3.61-5.78,7.28-8.94,11.27c2.91,3.21,5.54,6.09,8.53,9.38c2.25-3.71,4.37-7.03,6.29-10.48c0.47-0.85,0.31-2.15,0.36-3.24
	c0.27-6.01-1.25-11.7-2.51-17.48c-1.13-5.14-2.06-10.42-1.29-15.76c1.42-9.84,6.03-17.03,14.74-21.01c2.81-1.29,5.64-1.57,8.57-1.88
	c5.53-0.58,11.06-1.12,16.63-1.01c0.74,0.02,1.5-0.28,2.24-0.46c0.75-0.18,1.54-0.71,2.21-0.56c4.23,0.94,8.44,0.45,12.64-0.06
	c4.18-0.51,8.19,0.57,12.18,1.48c2.64,0.6,4.33,3.03,5.9,5.37c3.81,5.68,5.37,12.23,6.14,19.02c0.89,7.96,1.42,15.97,2.36,23.92
	c0.86,7.29,2.04,14.53,3.62,22.47c0.3-0.65,0.48-1.43,0.92-1.94c2.72-3.15,5.47-6.27,8.29-9.31c0.37-0.4,1.37-0.65,1.74-0.39
	c0.44,0.3,0.79,1.29,0.68,1.86c-0.18,0.9-0.6,1.93-1.24,2.51c-5.35,4.91-7.62,11.68-9.2,18.64c-0.68,2.98-0.04,6.37,0.27,9.54
	c0.09,0.89,1.12,1.67,2.06,2.95c2.78-3.37,5.33-6.45,7.97-9.64c-1.99-2.53-1.91-5.86-4.33-7.76c-0.39-0.31-0.36-1.99,0.05-2.56
	c0.71-0.99,1.94-0.82,2.66,0.15c1.27,1.72,2.38,3.58,3.69,5.59c2.18-2.28,3.35-5.04,4.62-7.72c3.88-8.22,6.28-16.93,7.37-26.08
	c0.54-4.53,1.08-9.06,1.83-13.55c0.43-2.6,1.27-5.13,2.06-8.2c1.87,1.69,2.69,3.4,3.03,5.27c0.38,2.04,0.69,4.18,0.56,6.24
	c-0.47,7.26-1.04,14.53-1.78,21.76c-0.5,4.91-1.69,9.67-3.75,14.13c-2.8,6.07-5.54,12.17-8.31,18.26c-1.03,2.27-0.71,5.57,0.96,8.49
	c2.26-4.29,4.46-8.43,6.64-12.59c1.58-3,2.95-6.14,4.76-8.96c3.17-4.94,5.62-10.45,9.78-14.62c3.51-3.51,6.82-7.26,10.41-10.66
	c1.5-1.43,3.49-2.26,5.28-3.32c1.05-0.62,1.71-0.1,2.28,1.28c-9.28,7.29-13.8,18.25-18.24,29.16c-2.66,6.55-3.73,13.61-3.14,21.13
	c1.98-3.16,3.94-6.33,5.93-9.49c1.03-1.63,2.09-3.24,3.16-4.83c0.71-1.06,1.72-1.39,2.65-0.54c0.82,0.75,0.45,1.71-0.09,2.66
	c-1.91,3.35-3.85,6.69-5.54,10.17C951.68,550.84,950.72,553.41,951.36,556.67z M129.62,564.29c0.21-3.49,0.12-6.23,0.59-8.86
	c0.9-5.05,2.11-10.03,3.22-15.03c0.36-1.62,1.58-1.69,2.72-1.38c1.12,0.31,1.14,1.24,0.79,2.36c-1.68,5.35-1.75,10.89-1.35,16.44
	c0.11,1.57,0.56,3.15,1.07,4.64c0.41,1.2,1.31,1.63,2.54,0.69c-0.13-3.04,0.09-6.07-1.35-8.98c-0.49-1-0.08-2.52-0.09-3.74
	c2.57-0.35,2.68-0.4,3.4,1.4c1.36,3.39,2.62,6.83,3.81,10.29c0.43,1.26,0.91,1.95,2.2,1.33c-0.48-6.46-3.24-12.13-5.32-18.01
	c-2.1-5.95-4.41-11.81-6.83-17.62c-2.37-5.71-4.86-11.38-8.76-16.87c-1.3,9.72-2,18.78-1.65,27.9c0.17,4.52,0.04,9.15,2.4,13.27
	c0.44,0.76,0.47,1.94,0.38,2.88C127.09,558.12,128.24,560.76,129.62,564.29z M213.49,491.4c-3.52-3.86-7.12-6.96-11.65-8.71
	c-1.58-0.61-3.03-1.71-4.42-2.78c-0.88-0.67-1.53-2.11-0.52-2.83c1.57-1.12,2.17-3.23,3.64-4.08c2.01-1.15,2.05-2.69,1.75-4.6
	c-0.17-1.09-0.46-2.15-0.57-3.25c-0.44-4.65-3.94-8.08-8.06-8.29c-5.3-0.28-9.96,2.11-14.83,3.66c-1.48,0.47-1.95,1.6-1.36,3.17
	c1.21,3.19,2.38,6.4,3.68,9.55c1.72,4.17,3.49,8.32,5.34,12.42c2.24,4.96,4.59,9.86,6.84,14.68c3.34-0.58,3.72-1.28,2.58-3.97
	c-1.57-3.7-3.16-7.39-4.66-11.12c-0.89-2.21-0.67-2.64,1.58-4.29c1.67,1.24,3.34,2.49,5.02,3.73c3.02,2.22,6.1,4.34,9.04,6.67
	C210.01,493.83,209.95,493.92,213.49,491.4z M428.05,548.94c0.23-2.33,0.34-3.66,0.5-4.99c0.36-3.04,0.53-6.14,1.16-9.12
	c1.31-6.24,2.76-12.46,4.4-18.61c0.52-1.95,0.34-3.34-1-4.61c-2.74-2.6-5.48-5.21-8.26-7.77c-1-0.92-2.11-1.7-3.51-2.81
	c-0.64,1.87-1.21,3.2-1.56,4.6c-0.66,2.61-1.17,5.27-1.79,7.89c-1.38,5.85-2.81,11.69-4.18,17.55c-0.22,0.93-0.35,1.98,0.95,2.4
	c3.58-6.92,7.14-13.81,10.69-20.67c1.99,0.3,2.34,1.46,1.76,3.2c-0.78,2.32-2.28,4.69-2.14,6.94c0.21,3.26-1.46,5.28-2.64,7.7
	c-1.36,2.8-2.75,5.6-4.24,8.63C421.44,542.47,424.45,545.41,428.05,548.94z M77.7,534.93c-8.8-15.4-13.07-21.19-16.92-22.9
	c0,1.27-0.09,2.51,0.02,3.72c0.72,7.97,1.17,15.99,2.34,23.89c0.98,6.61,1.92,13.52,7.68,17.79c1.8-4.71,1.92-6.42,0.72-11.75
	c-0.43-1.91-1.07-3.79-1.3-5.73c-0.09-0.75,0.69-1.63,1.07-2.45c0.73,0.45,1.62,0.73,2.14,1.38c0.52,0.65,0.67,1.65,1.19,3.07
	C75.82,539.22,76.74,537.12,77.7,534.93z M234.42,484.41c-0.38-2.13-0.57-4.07-1.08-5.91c-0.84-3.05-1.69-6.12-2.89-9.01
	c-2.6-6.27-5.41-12.44-8.17-18.63c-0.38-0.86-0.92-1.63-1.4-2.47c-2.81,0.6-5.55,0.81-7.62,2.96c0.34,3.02,12.48,31.01,15.68,36.02
	C230.54,486.49,232.21,485.59,234.42,484.41z M245.7,456.88c1.46-0.87,2.63-1.59,3.81-2.27c3.33-1.94,4.63-5.14,3.48-8.98
	c-0.56-1.87-1.28-3.71-2.08-5.48c-0.54-1.2-1.15-2.84-2.09-3.24c-1.84-0.76-4.02-1.29-5.93-0.99c-2.78,0.44-5.48,1.62-8.17,2.64
	c-1.92,0.73-2.39,2.07-1.58,4.02c0.79,1.92,1.67,3.79,2.47,5.71c2.54,6.06,5.06,12.13,7.58,18.21c1.17,2.81,2.25,5.66,3.49,8.43
	c0.3,0.66,1.07,1.47,1.65,1.5c2.19,0.11,4.39-3.82,3.43-6.08c-1.23-2.9-2.63-5.71-3.93-8.57
	C247.13,460.26,246.49,458.71,245.7,456.88z M577.93,553.32c7.14-10.4,8.24-35.51,2.08-46.39c-6.15,6.14-10.01,27.76-5.68,35.71
	c1.27-3.89,2.53-7.83,3.89-11.72c0.18-0.53,0.93-0.83,1.41-1.24c0.33,0.57,0.96,1.15,0.94,1.7c-0.16,4.34-0.01,8.74-1.73,12.86
	c-0.65,1.56-0.99,3.28-1.47,4.93C576.94,550.64,576.97,552.03,577.93,553.32z M670.64,517.65c-1.41,5.01-2.27,9.77-1.98,14.56
	c0.29,4.81,0.05,9.85,3.3,14c1.12,1.43,1.55,3.54,2.11,5.41c0.56,1.87,0.89,3.81,1.32,5.73c0.38,1.72,1.3,1.69,2.45,1.08
	c0.16-3.6-0.77-6.73-2.05-9.8c-1.28-3.07-2.51-6.16-3.7-9.27c-0.18-0.47-0.14-1.46,0.11-1.62c0.49-0.31,1.58-0.49,1.77-0.21
	c0.99,1.44,2.56,2.16,3.23,4.13c1.03,3.03,2.79,5.76,4.45,9.03C681.69,543.39,674.39,521.46,670.64,517.65z M806.19,549.31
	c0.18,0.02,0.36,0.05,0.54,0.07c1.45-3.93,2.8-7.91,4.38-11.78c1.64-4.03,3.5-7.96,5.33-12.1c-2.87-3.54-4.77-7.9-8.76-10.34
	c-2.57,1.8-2.09,4.79-1.77,7.07c1.15,8.13,0.3,16.24,0.28,24.35C806.19,547.5,806.19,548.41,806.19,549.31z M172.24,518.98
	c-1.98,2.03-2.4,4.34-3.21,6.47c-0.53,1.4-0.51,2.6,0.04,3.9c2.97,7.04,5.94,14.08,8.91,21.12c0.04,0.09,0.19,0.13,0.53,0.34
	c0.72-1.02,1.44-2.1,2.23-3.11c1.41-1.81,1.59-3.61,0.54-5.79c-1.31-2.73-2.31-5.63-3.42-8.47
	C176.01,528.73,174.19,523.99,172.24,518.98z M342.41,528.93c-1.69,2.31-2.33,4.54-3.32,6.57c-0.88,1.8-0.97,3.45-0.31,5.3
	c0.77,2.17,1.56,4.34,2.13,6.57c1.26,4.98,2.39,10.01,3.57,15.02c0.54,2.3,0.58,2.32,2.7,1.38c0.15-4.66,0.06-9.23,0.54-13.73
	c0.23-2.18,0.11-4.05-0.56-6.08c-0.94-2.87-1.53-5.88-2.4-8.78C344.17,533.22,343.34,531.37,342.41,528.93z M564.84,524.34
	c3.59-7.97,6.58-16.32,11.71-23.45c-2.24-3.77-4.96-6.6-8.48-9.41C566.96,502.76,565.9,513.55,564.84,524.34z M509.89,544.7
	c0.35-0.22,0.65-0.29,0.72-0.47c1.6-4.19,3.2-8.39,4.75-12.6c0.61-1.64,0.12-3.02-0.83-4.44c-1.4-2.07-2.57-4.33-3.8-6.53
	c-0.56-1-1.02-2.05-1.77-3.56C505.76,526.84,506.02,535.81,509.89,544.7z M153.88,384.59c0.9,4.71,5.07,13.56,7.81,16.5
	c0.78-0.51,1.61-1.05,2.65-1.73c-1.25-1.43-1.14-2.57-0.26-4.06c2.35-4.01,1-8.07-0.48-11.97c-0.22-0.58-1.21-1.02-1.91-1.17
	C158.82,381.56,156.37,382.73,153.88,384.59z M726.19,514.92c-3.73,8.46-4.77,22.02-2.42,27.14c2.71-5.17,5.49-10.48,8.41-16.05
	C730.4,522.71,728.38,518.96,726.19,514.92z M447.38,561.24c-0.07-2.85-0.48-5.39-0.12-7.79c0.76-4.95-0.03-9.8-0.38-14.67
	c-0.25-3.5-1.28-6.8-3.5-9.81c-0.49,4.14-1.01,7.89-1.35,11.66c-0.14,1.56,0.2,3.16,0.15,4.74c-0.15,5.35,2.44,9.88,3.73,14.8
	C446.05,560.66,446.93,560.92,447.38,561.24z M520.6,534.87c-2.26,6.09-4.47,11.96-6.6,17.86c-0.64,1.76,0.72,5.04,2.34,5.53
	c0.56,0.17,1.74-0.28,1.94-0.78c2.23-5.5,4.25-11.1,4.69-17.16C523.13,538.17,522.52,536.23,520.6,534.87z M821.4,538.76
	c-0.56,0.5-0.91,0.66-1.03,0.94c-2.12,5.11-2.2,10.94-4.73,15.91c-0.04,0.07,0.06,0.23,0.19,0.63c2.04,0,4.18-0.02,6.31-0.01
	c1.26,0.01,1.96-0.74,1.99-2C824.29,548.94,823.4,543.86,821.4,538.76z M168.28,563.94c0.31-6.85-1.35-13.08-3.3-19.99
	c-2.05,5.72-2.32,10.89-2.05,16.05C163.1,563.25,163.27,565.21,168.28,563.94z M336.96,564.04c0.25-0.09,0.5-0.19,0.75-0.28
	c0.05-5.2-1.32-10.27-1.75-15.42c-0.05-0.58-0.58-1.11-1.15-2.16c-0.77,2.5-1.22,4.53-2,6.39c-0.73,1.74-0.91,3.11,0.37,4.69
	c0.88,1.08,1.33,2.57,2.02,3.84C335.75,562.1,336.37,563.06,336.96,564.04z M185.88,553.15c-3.6,3.45-4.75,7.04-3.43,10.35
	c1.99-0.29,4.16,0.53,6.54-1.02C187.95,559.37,186.95,556.36,185.88,553.15z M605.06,545.09c-1.74,4.73-3.27,9.4-2.41,14.41
	c1.62,0,2.93-0.01,4.66-0.01C606.52,554.44,605.79,549.77,605.06,545.09z M85.31,559.98c-0.45-5.47-0.77-10.92-3.99-16.11
	c-0.81,2.65-1.44,4.71-2.06,6.74C81.32,553.8,83.31,556.89,85.31,559.98z M830.2,540.64c0.23-0.09,0.47-0.19,0.7-0.28
	c-0.81-5.49-1.63-10.97-2.47-16.62c-3.17,2.29-3.84,4.57-2.48,7.43c1.03,2.18,2,4.4,2.98,6.6
	C829.37,538.71,829.78,539.68,830.2,540.64z M528.53,546.32c-0.79,4.12-1.51,7.89-2.28,11.89c1.69,0,3.11-0.01,4.57-0.01
	C531.69,553.94,531.69,550.06,528.53,546.32z M423.56,561.86c-2.85-2.78-5.46-5.33-7.96-7.77c-0.29,2.5,0.03,5.31,1.32,8.12
	C419.12,562.1,421.22,561.99,423.56,561.86z M733.78,556.07c-1.34-3.46-2.49-6.62-4.6-9.74c-1.51,3.02-2.83,5.56-1.21,8.4
	C729.34,557.09,731.49,556.23,733.78,556.07z M559.79,559.65c-1.63-2.85-2.87-5.03-4.32-7.56c-1.8,2.69-3.27,4.9-5.06,7.58
	C553.72,559.66,556.38,559.65,559.79,559.65z M562.25,534.49c-0.17-0.04-0.34-0.09-0.51-0.13c-0.67,2.08-1.05,4.33-2.05,6.2
	c-2,3.73-0.47,6.37,1.89,9.45C561.82,544.5,562.04,539.49,562.25,534.49z M487.05,550.13c-2.48,2.21-3.03,4.11-2.71,6.89
	c0.23,2.01,0.49,2.16,3.41,1.69C487.53,555.87,487.29,553,487.05,550.13z M732.89,538.75c0.96,2,1.84,3.83,2.72,5.65
	c0.67-3.45,1.15-6.64,0.04-10.23C734.64,535.84,733.86,537.13,732.89,538.75z M406.82,563.05c1.55-0.68,3-0.98,3.02-1.39
	c0.16-2.57,0.56-5.2-0.95-7.81C408.27,556.6,407.65,559.36,406.82,563.05z M498.66,551.65c0.57,2.36,1.15,4.72,1.72,7.07
	C502.07,555.66,500.21,553.71,498.66,551.65z M43.33,544.83c0.31-0.08,0.62-0.15,0.92-0.23c-0.26-1.58-0.51-3.17-0.77-4.75
	c-0.26,0.04-0.51,0.09-0.77,0.13C42.92,541.6,43.12,543.21,43.33,544.83z M154.68,404.73c2.28-1.26,1.67-2.68,1.18-4.1
	C155.54,401.74,155.22,402.85,154.68,404.73z M804.6,555.89c0.33,0.07,0.66,0.14,0.99,0.21c0.08-0.85,0.15-1.69,0.23-2.54
	c-0.25-0.04-0.5-0.07-0.75-0.11C804.91,554.27,804.76,555.08,804.6,555.89z"/>
</svg>
